<svg width="56" height="56" viewBox="0 0 56 56" fill="none" xmlns="http://www.w3.org/2000/svg">
<circle cx="28" cy="28" r="28" fill="white" fill-opacity="0.8"/>
<path fill-rule="evenodd" clip-rule="evenodd" d="M15.7717 47.0218C16.0435 46.4103 17.538 38.6658 17.8777 38.3261C17.9456 38.2582 18.2853 38.0544 18.4212 37.9864L20.0516 36.8995C20.2554 37.2391 21.0027 37.7826 21.4103 38.0544C21.8859 38.3261 22.6331 38.6658 23.3125 38.6658C23.3125 40.7038 23.2446 41.8587 24.1277 43.7609C25.0109 45.6631 25.1467 45.3913 25.8261 46.4783C25.1467 46.4103 22.3614 45.1875 21.75 45.1875C21.1386 45.1875 16.3152 47.0218 15.7717 47.0218ZM28.1359 8.84241H29.3587C31.0571 8.97828 32.7554 9.52175 34.1821 10.6087C35.2011 11.4239 34.1821 11.0163 35.6087 11.2881C36.7636 11.5598 37.6467 12.1712 38.2581 12.9864C38.8016 13.6658 39.0734 14.5489 39.0734 15.5V16.3832C39.1413 16.519 41.4511 17.606 41.4511 20.0516C41.4511 21.75 41.1793 21.8179 40.5679 22.9728C40.0244 23.9919 40.2962 26.6413 37.7147 28.4076C37.375 28.6794 37.1033 28.7473 36.6956 28.9511C36.6956 30.9891 36.8994 30.5815 36.288 32.3478L35.3369 35.1332C36.288 35.8125 37.2391 36.4239 38.2581 37.1033C39.0734 37.6468 38.9375 37.5109 39.2092 38.5978C39.2772 38.9375 39.413 39.2093 39.2772 39.5489C39.0054 40.0924 38.1902 40.2283 37.8505 39.6848C37.3071 38.8016 38.2581 39.0054 36.8315 38.1223C36.1522 37.6468 35.4728 37.2391 34.7935 36.7636C34.7255 37.375 34.3179 37.375 34.3179 37.9185C34.3179 38.394 34.3179 39.0054 34.3179 39.481C34.3179 41.3152 33.9782 43.2174 33.0951 44.712C32.3478 46.0027 32.2119 46.0027 31.8043 46.5462C32.2119 46.4783 33.3668 46.0707 33.8424 45.9348C34.25 45.7989 35.5408 45.3234 35.8804 45.3234C36.288 45.3234 38.8696 46.6821 39.413 46.9538C39.413 46.8859 38.8696 45.3913 39.9565 45.3913C40.8397 45.3913 40.8397 45.7989 41.0435 46.75C41.1793 47.3614 41.9266 49.2636 40.7038 49.2636C40.0924 49.2636 38.4619 48.3125 37.7826 47.9728C35.6087 46.8859 36.1522 46.8859 34.9973 47.2935C33.9783 47.6332 32.9592 47.9728 31.9402 48.3125C31.3967 48.5163 29.2907 49.2636 28.8831 49.2636C28.2717 49.2636 22.1576 46.9538 21.8179 46.9538C21.4103 46.9538 15.3641 49.2636 14.7527 49.2636C13.5978 49.2636 14.0734 47.9728 14.1413 47.4973C14.413 46.2065 16.1793 37.9185 16.4511 37.5788L19.1005 35.8125C19.1005 35.4049 18.8967 35.2011 18.8288 34.8614C18.7609 34.5897 18.6929 34.1821 18.625 33.8424C18.625 33.0951 18.625 32.2799 18.625 31.4647C17.8777 31.2609 17.1304 30.7174 16.5869 30.1739L16.519 30.106C15.6359 29.1549 15.4321 28.6794 15.0244 27.3207C14.8886 26.9131 14.8886 26.981 14.481 26.8451C11.5598 25.8261 10.5408 22.0218 12.9185 19.644C12.9185 19.644 12.9185 19.644 12.9864 19.5761C12.9864 19.5761 12.9864 19.5761 13.0543 19.5082L13.3261 19.2364C13.6658 18.9647 14.0054 18.8288 14.3451 18.693C13.8696 17.9457 13.8696 17.1305 13.8696 16.3152C13.8696 13.7337 16.4511 11.2201 18.9647 11.2201C21.5462 11.2201 21.0706 11.6957 22.1576 11.8995C22.7011 11.0163 23.6522 10.337 24.6033 9.79349C25.6902 9.25002 26.913 8.91034 28.1359 8.84241ZM24.875 39.3451V38.7337H32.0081C32.4158 38.7337 32.3478 38.6658 32.6875 38.6658C32.6875 41.7908 32.2799 43.1495 30.5815 45.3234L28.8152 47.0897C28.0679 46.5462 26.5734 44.8478 26.0978 44.0326C25.3505 42.8098 24.875 41.3152 24.875 39.3451ZM20.1196 32.8913V31.6006H21.6821C21.6821 32.0082 21.8859 32.6196 21.9538 32.9593L22.769 36.2881C22.8369 36.5598 22.9049 36.6957 22.9728 36.9674C22.5652 36.7636 22.3614 36.8315 21.8179 36.4239C20.731 35.6087 20.1196 34.5218 20.1196 32.8913ZM16.3831 26.2337C16.3831 24.8071 17.4701 24.6033 18.5571 24.6033C18.5571 25.4864 18.4891 26.0978 19.0326 26.9131C19.4402 27.5245 20.2554 28.2038 20.7989 28.7473C21.0706 29.019 21.2065 29.6305 21.2744 30.106C19.7119 30.106 18.625 29.9701 17.606 28.8832C16.9946 28.1359 16.3831 26.981 16.3831 26.2337ZM30.3777 25.894V30.0381C28.8831 30.0381 28 29.7663 28 30.9212C28 31.3288 28.3397 31.6006 28.6793 31.6006C32.4837 31.6006 31.8723 32.2799 31.8723 27.5924C31.8723 26.5055 31.6005 24.5353 33.5706 24.5353H34.9973V30.4457C34.9973 30.7174 33.3668 35.6087 33.163 36.1522C32.8913 36.7636 32.3478 37.1033 31.5326 37.1033H26.0978C24.4674 37.1033 24.3994 35.8805 24.0598 34.6576L22.4973 28.2718C22.2255 27.2527 20.1196 26.5734 20.1196 24.875V19.1685C20.1196 18.3533 20.5272 17.8777 21.0706 17.606C21.1386 18.2174 21.6821 18.7609 22.0217 19.1006C22.7011 19.712 23.3804 19.8478 24.2636 19.8478C25.0788 19.8478 25.5543 19.4402 26.0978 19.1685L26.3016 19.3044C26.3696 19.3723 26.4375 19.3723 26.5734 19.4402C26.7772 19.5082 26.913 19.5761 27.1168 19.644C28.4755 20.0516 30.038 19.8478 31.2609 19.2364C31.8043 18.9647 32.6196 18.4212 32.8913 17.9457C34.9973 19.1006 34.9973 20.8669 34.9973 22.9728H33.163C31.8043 22.9728 30.3777 24.4674 30.3777 25.894ZM37.1712 16.7908C37.1712 17.0625 37.1712 17.3343 37.5788 17.5381C38.1223 17.8098 38.5978 17.6739 39.3451 18.7609C39.9565 19.5761 39.8886 20.9348 39.2772 21.75C38.6658 22.5652 38.6658 23.4484 38.3261 24.7391C38.1223 25.5544 37.375 26.7772 36.6277 26.981C36.6277 25.4185 36.7636 21.0027 36.4239 19.7799C36.0842 18.625 35.4728 17.8098 34.5897 17.0625C34.3859 16.9266 34.25 16.7908 34.0462 16.6549C32.0761 15.4321 32.3478 16.519 31.0571 17.4701C30.038 18.2174 28.4755 18.4891 27.2527 17.9457C26.3696 17.5381 26.5054 17.3343 25.8261 17.3343C25.1467 17.3343 25.0788 18.2853 23.9918 18.2853C23.3804 18.2853 22.8369 17.8098 22.6331 17.4022C22.2255 16.519 22.769 15.9076 21.4103 15.9076C19.9837 15.9076 18.4891 17.3343 18.4891 18.8288V22.9728C17.3342 22.9728 16.8587 22.9049 15.8397 23.6522C15.5 23.9239 14.8886 24.6033 14.8206 25.0788C14.2772 25.0788 13.8016 24.5353 13.5299 24.1957C12.7147 23.1766 12.8505 21.6821 13.7337 20.731L13.8016 20.6631C13.8016 20.6631 13.8016 20.6631 13.8696 20.5951C13.8696 20.5951 13.8696 20.5951 13.9375 20.5272C14.0734 20.3913 14.1413 20.3234 14.2772 20.2554C14.5489 20.0516 14.8206 19.9837 15.1603 19.9158C16.6549 19.5761 15.8397 18.693 15.5679 17.7419C14.9565 15.9076 15.9076 14.0055 17.7418 13.1223C20.1875 11.9674 21.75 13.8696 22.2935 13.8696C22.6331 13.8696 22.9049 13.6658 23.0408 13.394C23.856 11.9674 25.0109 11.2201 26.5734 10.7446C28.9511 9.9973 31.9402 10.6087 33.6386 12.375C34.1821 12.9185 34.0462 12.7147 34.9293 12.8506C35.5408 12.9185 35.8125 13.0544 36.2201 13.3261C38.0543 14.6169 37.1712 16.3832 37.1712 16.7908Z" fill="#009846"/>
<path fill-rule="evenodd" clip-rule="evenodd" d="M23.3125 23.7201C23.3125 24.1957 23.5163 24.6033 23.9918 24.6033H26.5054C27.4565 24.6033 27.4565 23.0408 26.5054 23.0408H23.9918C23.5842 22.9728 23.3125 23.3125 23.3125 23.7201Z" fill="#009846"/>
<path fill-rule="evenodd" clip-rule="evenodd" d="M38.462 42.4701C38.462 43.625 40.0245 43.625 40.0245 42.4701C40.0245 41.519 38.462 41.519 38.462 42.4701Z" fill="#009846"/>
<path d="M28 3C34.9293 3 41.1793 5.78533 45.663 10.337C50.1467 14.8886 53 21.1386 53 28C53 34.8614 50.2147 41.1793 45.663 45.663C41.1114 50.2147 34.8614 53 28 53C21.1386 53 14.8207 50.2147 10.337 45.663C5.78533 41.1793 3 34.9293 3 28C3 21.0707 5.78533 14.8207 10.337 10.337C14.8886 5.85326 21.0707 3 28 3ZM43.7609 12.2391C39.7527 8.23098 34.1821 5.71739 28 5.71739C21.8179 5.71739 16.2473 8.23098 12.2391 12.2391C8.23098 16.2473 5.71739 21.8859 5.71739 28C5.71739 34.1141 8.23098 39.7527 12.2391 43.7609C16.2473 47.769 21.8179 50.2826 28 50.2826C34.1821 50.2826 39.7527 47.837 43.7609 43.7609C47.769 39.6848 50.2826 34.1821 50.2826 28C50.2826 21.8179 47.837 16.2473 43.7609 12.2391Z" fill="#009846"/>
</svg>
