<svg width="56" height="56" viewBox="0 0 56 56" fill="none" xmlns="http://www.w3.org/2000/svg">
<circle cx="28" cy="28" r="28" fill="white" fill-opacity="0.8"/>
<path fill-rule="evenodd" clip-rule="evenodd" d="M28.5435 44.3723C28.8152 44.5082 28.8832 44.5082 29.019 44.7799C29.087 44.9158 29.2228 45.1875 29.2228 45.3913V47.5652H28.5435V44.3723ZM41.3832 48.1087V48.3805C41.3152 48.6522 41.1114 48.856 40.7718 48.856H15.1603C14.2772 48.856 14.2772 47.5652 15.1603 47.5652H22.2935V36.4919C21.8859 36.4919 21.3424 36.4919 21.3424 35.8805C21.3424 34.9973 22.4294 35.269 23.7881 35.269V32.3478C23.7881 31.3968 25.0788 31.3968 25.0788 32.2799V35.269H30.6495V29.2228H25.0788C25.0788 29.6305 25.2147 30.8533 24.6033 30.8533C23.6522 30.8533 23.7881 30.3098 23.7881 29.2228C23.3805 29.1549 23.1767 28.8152 23.3125 28.4076C23.5163 27.8641 24.1277 27.9321 24.6712 27.9321V21.2745C24.6712 21.0027 24.7392 20.8669 24.943 20.7989C25.2147 20.6631 25.4185 20.731 25.5544 20.6631C25.7582 20.5272 25.6223 20.731 25.6902 20.3913L26.3696 16.7908C26.5055 15.9756 26.7093 15.0245 26.9131 14.1413C26.981 13.6658 27.0489 13.2582 27.1848 12.8506C27.3886 11.7636 28.2038 11.9674 28.4076 12.443C28.4756 12.5788 28.5435 12.9185 28.5435 13.0544L29.9701 20.1196C30.0381 20.6631 30.0381 20.5951 30.1739 20.6631C30.5136 20.7989 30.9892 20.5951 30.9892 21.3424V28H31.3968C32.6875 28 32.6875 29.087 31.8723 29.2908V35.337H33.7065C34.5218 35.337 34.7256 36.6277 33.3669 36.6277V47.7011H40.5C41.0435 47.6332 41.3152 47.837 41.3832 48.1087ZM26.5055 45.7989C26.5055 45.1196 26.7772 44.5082 27.3207 44.3723V47.5652H26.5055V45.7989ZM25.3506 45.2555V47.6332H23.5163V41.1794H32.212V47.6332H30.5815V45.5951C30.5815 43.4891 28.068 42.0625 26.1658 43.693C25.8261 43.9647 25.3506 44.644 25.3506 45.2555ZM24.1277 37.9185V39.8886H23.5163V36.4919H32.212V39.8886H31.5326C31.5326 39.0055 31.7364 37.443 30.9212 37.443C30.0381 37.443 30.3098 38.5978 30.3098 39.8886H29.4946C29.4946 38.8696 29.6984 37.443 28.8832 37.443C28 37.443 28.2718 38.5978 28.2718 39.8886H27.4565C27.4565 38.8696 27.6604 37.443 26.9131 37.443C25.962 37.443 26.2337 38.7337 26.2337 39.8886H25.4185C25.4185 38.7337 25.6902 37.443 24.875 37.443C24.4674 37.443 24.1277 37.6468 24.1277 37.9185ZM25.962 26.7772H29.8343V27.9321H25.962V26.7772ZM26.3696 22.837V25.4864H25.962V21.8859H29.8343V25.4864H29.4267V22.7011C29.4267 21.8859 28.1359 21.8859 28.1359 22.7011V25.5544H27.5924V22.7011C27.5924 21.8859 26.3696 21.6821 26.3696 22.837ZM27.8642 15.8397H27.9321C27.9321 16.1794 28.8152 20.4593 28.8832 20.6631H26.981L27.6603 17.0625C27.7283 16.6549 27.8642 16.2473 27.8642 15.8397Z" fill="#748187"/>
<path fill-rule="evenodd" clip-rule="evenodd" d="M9.4538 35.8805V39.8207C8.63858 39.8207 7.75543 39.6169 7.75543 40.4321C7.75543 41.2473 8.91032 41.0435 10.0652 41.0435C10.9484 41.0435 10.7446 40.0924 10.7446 39.2093C10.7446 38.3261 10.7446 37.5109 10.7446 36.6278C11.6956 37.1033 11.0842 38.2582 11.8995 38.2582C12.9185 38.2582 12.2391 37.1033 13.1902 36.6278C13.1902 37.443 13.1902 38.3261 13.1902 39.1413C13.1902 41.3153 13.0543 41.0435 15.7717 41.0435C16.7908 41.0435 16.587 40.2283 16.587 39.2093C16.587 38.3261 16.587 37.5109 16.587 36.6278C17.4701 36.8995 16.9266 38.2582 17.8777 38.2582C18.0815 38.2582 18.2853 38.1223 18.3533 37.9864C18.4891 37.8506 18.4891 37.7147 18.5571 37.443C18.625 37.0354 18.7609 36.6957 19.1685 36.5598C19.1685 37.375 19.1685 38.2582 19.1685 39.0734C19.1685 41.1114 18.9647 40.9756 21.0706 40.9756C21.9538 40.9756 21.9538 39.6848 21.0706 39.6848H20.3913V35.6767C20.3913 34.7935 18.9647 35.2011 18.625 35.4049C18.3533 35.5408 18.2174 35.7446 17.9456 35.9484C17.4022 35.5408 17.3342 35.1332 16.0435 35.1332C15.7038 35.1332 15.5 35.337 15.5 35.6767V39.6848H14.5489V35.7446C14.5489 34.7935 13.2581 35.0653 12.7147 35.4049C12.375 35.6087 12.3071 35.7446 12.0353 35.8805C11.4239 35.4049 9.4538 34.7256 9.4538 35.8805Z" fill="#748187"/>
<path fill-rule="evenodd" clip-rule="evenodd" d="M41.2473 35.8805V39.8207H40.2962C40.2962 39.4131 40.4321 38.462 39.7527 38.462C38.9375 38.462 39.1413 39.4131 39.1413 40.4321C39.1413 41.3152 40.5 41.0435 41.7908 41.0435C42.6739 41.0435 42.4701 40.0924 42.4701 39.2093C42.4701 38.3261 42.4701 37.5109 42.4701 36.6277C43.3533 37.1033 42.8098 38.2582 43.625 38.2582C44.1685 38.2582 44.1685 37.9185 44.3043 37.5109C44.3723 37.0354 44.5081 36.8315 44.9158 36.6277C44.9158 37.443 44.9158 38.3261 44.9158 39.1413C44.9158 41.2473 44.7799 41.0435 47.0897 41.0435C48.2446 41.0435 48.0408 39.7527 47.2255 39.7527H46.1386V35.8125C46.1386 34.6576 44.1685 35.269 43.6929 35.9484C42.8098 35.337 42.9456 35.1332 41.6549 35.1332C41.4511 35.269 41.2473 35.6087 41.2473 35.8805Z" fill="#748187"/>
<path fill-rule="evenodd" clip-rule="evenodd" d="M26.5734 32.0082C26.5734 31.4647 26.8451 30.9891 27.2527 30.9212C27.2527 32.8234 27.1168 32.6196 28.9511 32.6196C28.2038 33.9103 26.5734 33.231 26.5734 32.0082ZM28.4755 30.9212C28.7473 30.9891 28.8831 31.1929 29.019 31.3967H28.4755V30.9212ZM25.3505 32.0082C25.3505 33.2989 26.5054 34.5217 27.6603 34.5217C28.4755 34.5217 29.2228 34.4538 29.7663 33.7745C31.1929 32.0082 30.2418 29.4946 27.7962 29.4946C26.4375 29.4946 25.3505 30.7174 25.3505 32.0082Z" fill="#748187"/>
<path fill-rule="evenodd" clip-rule="evenodd" d="M35.4049 35.8125V39.8207H34.7255C33.8424 39.8207 33.8424 41.1115 34.7255 41.1115C36.8315 41.1115 36.6277 41.1794 36.6277 39.2772C36.6277 38.3941 36.6277 37.5788 36.6277 36.6957C37.0353 36.7636 37.1712 37.1712 37.2391 37.5109C37.3071 37.7827 37.3071 38.3261 37.9185 38.3261C38.8696 38.3261 38.2581 36.8995 39.2092 36.6957C39.2092 37.443 39.2092 37.7147 39.8206 37.7147C40.5679 37.7147 40.3641 36.9674 40.3641 35.8125C40.3641 34.9294 38.9375 35.337 38.5978 35.5408C38.3261 35.6767 38.1902 35.8805 37.9185 36.0843C37.6467 35.9484 37.5109 35.7446 37.2391 35.5408C36.8315 35.337 35.4049 34.9294 35.4049 35.8125Z" fill="#748187"/>
<path fill-rule="evenodd" clip-rule="evenodd" d="M27.3206 9.31796C27.1168 9.25002 27.1848 9.25002 26.9809 9.25002C26.4375 9.25002 26.0299 10.2011 26.8451 10.4049C26.8451 10.6767 26.7771 10.6087 26.7771 11.0163C26.7771 11.4919 27.6603 11.7636 27.8641 11.1522C28.2038 11.4239 28 11.4919 28.5434 11.4919C29.0869 11.4919 29.019 10.8125 28.9511 10.4729C28.9511 10.4729 29.019 10.4049 29.0869 10.4049C29.2228 10.269 29.1549 10.4049 29.2228 10.269C29.4266 9.99731 29.4266 9.65763 29.1549 9.45383C28.8831 9.25002 28.9511 9.31796 28.6793 9.31796C28.5434 9.31796 28.6114 9.38589 28.5434 9.25002C28.5434 9.25002 28.4076 8.77448 28.0679 8.63861H27.7962C27.7282 8.63861 27.5924 8.70655 27.5244 8.77448C27.3206 8.91035 27.3206 8.97828 27.3206 9.31796Z" fill="#748187"/>
<path fill-rule="evenodd" clip-rule="evenodd" d="M40.5679 46.2745C41.7228 46.2745 42.2663 46.4783 42.2663 45.4592C42.2663 44.8478 41.0435 44.9837 40.5679 44.9837C39.6848 44.9837 39.6848 46.2745 40.5679 46.2745Z" fill="#748187"/>
<path fill-rule="evenodd" clip-rule="evenodd" d="M36.288 44.4402C36.288 45.3913 38.7337 45.2554 38.7337 44.5081C38.7337 43.625 37.9864 43.8288 36.8994 43.8288C36.4918 43.8288 36.288 44.1005 36.288 44.4402Z" fill="#748187"/>
<path fill-rule="evenodd" clip-rule="evenodd" d="M15.5679 45.3234C15.5679 46.2745 16.0435 46.1386 17.2663 46.1386C18.1495 46.1386 18.1495 44.8478 17.2663 44.8478C16.7908 44.8478 15.5679 44.712 15.5679 45.3234Z" fill="#748187"/>
<path fill-rule="evenodd" clip-rule="evenodd" d="M11.356 43.9647C11.356 44.8478 13.8016 44.8478 13.8016 43.9647C13.8016 43.1495 12.9185 43.3533 11.9674 43.3533C11.5598 43.3533 11.356 43.625 11.356 43.9647Z" fill="#748187"/>
<path d="M28 3C34.9293 3 41.1793 5.78533 45.663 10.337C50.1467 14.8886 53 21.1386 53 28C53 34.8614 50.2147 41.1793 45.663 45.663C41.1114 50.2147 34.8614 53 28 53C21.1386 53 14.8207 50.2147 10.337 45.663C5.78533 41.1793 3 34.9293 3 28C3 21.0707 5.78533 14.8207 10.337 10.337C14.8886 5.85326 21.0707 3 28 3ZM43.7609 12.2391C39.7527 8.23098 34.1821 5.71739 28 5.71739C21.8179 5.71739 16.2473 8.23098 12.2391 12.2391C8.23098 16.2473 5.71739 21.8859 5.71739 28C5.71739 34.1141 8.23098 39.7527 12.2391 43.7609C16.2473 47.769 21.8179 50.2826 28 50.2826C34.1821 50.2826 39.7527 47.837 43.7609 43.7609C47.769 39.6848 50.2826 34.1821 50.2826 28C50.2826 21.8179 47.837 16.2473 43.7609 12.2391Z" fill="#748187"/>
</svg>
