<svg width="56" height="56" viewBox="0 0 56 56" fill="none" xmlns="http://www.w3.org/2000/svg">
<circle cx="28" cy="28" r="28" fill="white" fill-opacity="0.8"/>
<path fill-rule="evenodd" clip-rule="evenodd" d="M30.038 40.7038C30.038 41.1114 30.4457 41.1793 30.7853 41.1793C31.0571 41.1793 34.7935 37.3071 35.0652 37.0353C36.0163 36.0842 47.4293 24.5353 47.9049 24.2636V39.2772C44.5761 45.8668 39.6168 49.2636 33.4348 50.2147C33.7065 49.8071 39.0734 44.5081 39.9565 43.625C40.2283 43.3533 40.7717 42.9456 40.7717 42.4701C40.7717 42.0625 40.5679 41.8587 40.1603 41.8587C39.6848 41.8587 39.1413 42.538 38.8696 42.8777L31.8723 49.9429C31.5326 50.2826 31.6005 50.2147 30.9891 50.2147C24.3995 52.1168 21.0027 49.6033 14.6168 46.5462C14.8886 46.1386 22.0217 39.1413 22.9728 38.1902C23.788 37.375 24.5353 36.4918 25.3505 35.7446C25.6902 35.4049 26.7772 35.5408 27.5245 35.5408C29.9022 35.5408 32.3478 35.5408 34.7255 35.5408C34.1141 36.6277 30.038 39.9565 30.038 40.7038ZM12.375 47.2255C12.375 47.5652 12.7147 47.769 12.8505 47.8369C26.7092 55.3777 38.6658 53.5435 48.4484 40.5679C48.7201 40.2283 49.1277 40.2962 49.1277 39.8886V22.769C49.1277 22.4293 48.9919 22.2255 48.7201 22.1576C48.1766 21.9538 47.5652 22.8369 46.8859 23.5163L36.0163 34.3859C35.4728 34.5897 26.1658 34.3179 25.2147 34.4538C24.7391 34.5217 22.2255 37.2391 21.8179 37.6467L13.3261 46.0027C13.0543 46.2744 12.375 46.75 12.375 47.2255Z" fill="#FF5B00"/>
<path fill-rule="evenodd" clip-rule="evenodd" d="M29.3587 19.644C30.038 20.663 30.2418 20.8668 30.9212 22.0217C31.9402 23.788 32.5516 27.1168 32.0081 29.2908V29.2228L31.125 27.1168C30.4456 25.6902 29.7663 24.6033 28.7473 23.3804C28.4076 22.9728 27.5924 22.0217 27.2527 21.75L29.3587 19.644ZM11.8315 34.25L10.3369 32.8234L22.769 20.3234L24.2636 21.8179L11.8315 34.25ZM25.7581 21.4783L23.0407 18.8288L26.3695 15.5L29.019 18.1495L25.7581 21.4783ZM27.932 15.0924C28.2038 15.0245 28.3396 14.8206 28.6793 14.8206C29.2907 14.8206 30.106 15.4321 29.4266 16.587C29.0869 16.519 28.1358 15.5 27.932 15.0924ZM15.0924 12.5788L17.1983 12.3071C17.9456 12.2391 19.9157 12.6467 20.663 12.9185C22.769 13.6658 23.1766 14.0734 24.807 15.2283L22.769 17.3342C22.5652 17.1984 20.9348 15.6359 19.3043 14.6168C18.3532 14.0734 17.2663 13.462 16.2473 13.0543L15.2282 12.6467C15.2282 12.6467 15.1603 12.5788 15.0924 12.5788C15.0924 12.5788 15.1603 12.5788 15.0924 12.5788ZM11.9674 12.6467C11.9674 13.6658 12.5108 13.1223 14.7527 13.8016C15.8396 14.1413 16.519 14.481 17.4701 14.9565C20.1195 16.2473 20.5951 17.2663 21.9538 18.1495C21.75 19.0326 21.2744 18.4891 21.9538 19.5081C21.682 19.9158 11.6277 29.9022 10.4728 31.0571C8.77443 32.7554 8.50269 32.6875 9.52171 33.7065C9.92932 34.1141 11.4239 35.8125 11.8994 35.8125C12.307 35.8125 12.5788 35.4049 12.8505 35.0652C14.3451 33.5706 24.807 23.0408 25.2147 22.769C25.9619 23.2446 25.7581 23.2446 26.5054 22.769L27.3886 23.7201C29.1549 25.962 30.8532 28.4755 31.1929 31.3967C31.2608 32.0761 31.1929 32.6196 31.8723 32.6196C32.5516 32.6196 32.8913 31.125 33.0272 30.5815C33.9782 27.0489 33.3668 23.5842 31.4647 20.5951L30.1739 18.8288C30.3098 18.625 30.5136 18.5571 30.5815 18.2174C30.6494 17.8098 30.3777 17.8098 30.3098 17.4701C30.5136 17.1304 30.9891 16.7228 30.9891 15.8397C30.9891 13.5978 28.0679 12.9185 27.1168 14.3451C26.5054 13.9375 26.5733 13.8016 25.7581 14.3451C25.2826 14.0054 24.875 13.6658 24.0598 13.1223C23.4483 12.7147 22.8369 12.4429 22.1576 12.1712C17.2663 9.99728 11.9674 11.8995 11.9674 12.6467Z" fill="#FF5B00"/>
<path fill-rule="evenodd" clip-rule="evenodd" d="M26.7092 29.7663C26.7092 30.1739 27.5924 30.9212 28 31.2609C28.7473 32.0082 29.019 32.5517 29.6984 32.5517C29.9701 32.5517 30.1739 32.212 30.1739 31.9402C30.1739 31.6006 27.6603 29.1549 27.4565 29.1549C27.1168 29.2228 26.7092 29.2228 26.7092 29.7663Z" fill="#FF5B00"/>
<path fill-rule="evenodd" clip-rule="evenodd" d="M33.4348 32.0761C33.4348 32.4837 33.8424 32.5517 34.182 32.5517C34.3858 32.5517 36.8994 30.106 36.8994 29.7663C36.8994 29.2908 36.4918 29.1549 36.1521 29.1549C35.8804 29.1549 34.4538 30.7853 33.9782 31.193C33.7744 31.4647 33.4348 31.6685 33.4348 32.0761Z" fill="#FF5B00"/>
<path fill-rule="evenodd" clip-rule="evenodd" d="M26.7092 43.8967C26.7092 44.2364 26.8451 44.644 27.3206 44.644C27.6603 44.644 29.2908 43.0136 29.2908 42.8098C29.2908 42.2663 29.2228 42.0625 28.6114 42.0625C28.3397 41.9946 26.7092 43.625 26.7092 43.8967Z" fill="#FF5B00"/>
<path fill-rule="evenodd" clip-rule="evenodd" d="M41.451 40.5679C41.451 40.9076 41.7228 41.2473 42.0625 41.2473C42.4021 41.2473 43.8288 40.0924 43.8288 39.413C43.8288 39.2092 43.625 38.9375 43.2174 38.9375C42.7418 38.9375 42.4701 39.413 42.1983 39.6168C42.0625 39.7527 41.451 40.2283 41.451 40.5679Z" fill="#FF5B00"/>
<path fill-rule="evenodd" clip-rule="evenodd" d="M24.6032 27.6603C24.6032 28 25.5543 28.9511 25.894 28.9511C26.0298 28.9511 27.0489 28.6114 26.0298 27.5924C25.826 27.3886 25.5543 27.0489 25.2826 27.0489C24.9429 27.0489 24.6032 27.3206 24.6032 27.6603Z" fill="#FF5B00"/>
<path fill-rule="evenodd" clip-rule="evenodd" d="M37.1711 28.2038C37.1711 29.7663 38.9375 28.4756 38.9375 27.7283C38.9375 27.2527 38.6657 27.1169 38.2581 27.1169C38.0543 27.0489 37.1711 27.9321 37.1711 28.2038Z" fill="#FF5B00"/>
<path d="M28 3C34.9293 3 41.1793 5.78533 45.663 10.337C50.1467 14.8886 53 21.1386 53 28C53 34.8614 50.2147 41.1793 45.663 45.663C41.1114 50.2147 34.8614 53 28 53C21.1386 53 14.8207 50.2147 10.337 45.663C5.78533 41.1793 3 34.9293 3 28C3 21.0707 5.78533 14.8207 10.337 10.337C14.8886 5.85326 21.0707 3 28 3ZM43.7609 12.2391C39.7527 8.23098 34.1821 5.71739 28 5.71739C21.8179 5.71739 16.2473 8.23098 12.2391 12.2391C8.23098 16.2473 5.71739 21.8859 5.71739 28C5.71739 34.1141 8.23098 39.7527 12.2391 43.7609C16.2473 47.769 21.8179 50.2826 28 50.2826C34.1821 50.2826 39.7527 47.837 43.7609 43.7609C47.769 39.6848 50.2826 34.1821 50.2826 28C50.2826 21.8179 47.837 16.2473 43.7609 12.2391Z" fill="#FF5B00"/>
</svg>
